# xmcd CD database file
#
# Track frame offsets:
#	182
#	13257
#	28470
#	43012
#	56202
#	70907
#	84720
#	100232
#	113740
#	127162
#	145855
#	159612
#	172737
#	187260
#	199680
#	220572
#
# Disc length: 3309 seconds
#
# Revision: 0
# Processed by: cddbd v1.5.1PL2 Copyright (c) Steve Scherf et al.
# Submitted via: CDex 1.51
#
DISCID=ef0ceb10
DTITLE=Duke Ellington - Black and Soul
DYEAR=1900
DGENRE=Jazz
TTITLE0=East St. Louis Toodle-oo
TTITLE1=Black and tan fantasy
TTITLE2=Creole Love call
TTITLE3=Mood indigo
TTITLE4=Rockin' in rhythm
TTITLE5=Black beauty
TTITLE6=The mooche
TTITLE7=Cotton club stomp
TTITLE8=Jungle nights  in Harlem
TTITLE9=Creole Rhapsody (part 1)
TTITLE10=Echoes of Harlem
TTITLE11=Take the "A" train
TTITLE12=It don't mean a thing
TTITLE13=Sophisticated lady
TTITLE14=Work song (from black brown and beige)
TTITLE15=C jam blues
EXTD=
EXTT0=
EXTT1=
EXTT2=
EXTT3=
EXTT4=
EXTT5=
EXTT6=
EXTT7=
EXTT8=
EXTT9=
EXTT10=
EXTT11=
EXTT12=
EXTT13=
EXTT14=
EXTT15=
PLAYORDER=
